<svg xmlns="http://www.w3.org/2000/svg" viewBox="0 0 64 64" width="256" height="256" aria-hidden="true">
  <g stroke="#0b3144" stroke-width="2.5" stroke-linecap="round" stroke-linejoin="round">
    <path d="M36 18c-8 0-14 6-14 14 0 8 6 14 14 14 0 0 0 0 0 0 10 0 18-8 18-18 0-8-6-14-14-14z" fill="#DCE9F6" stroke="#0b3144"/>
    <path d="M18 34c0-6 6-10 12-10s12 4 12 10-6 10-12 10H20c-4 0-8-2-8-6s4-6 6-6z" fill="#9AA6B6" stroke="#0b3144"/>
    <g fill="#2F9BD3" stroke="#0b3144" stroke-width="1.2">
      <path d="M22 46c0 2-2 4-3 4s-3-2-3-4 3-4 3-4 3 2 3 4z"/>
      <path d="M30 46c0 2-2 4-3 4s-3-2-3-4 3-4 3-4 3 2 3 4z"/>
      <path d="M38 46c0 2-2 4-3 4s-3-2-3-4 3-4 3-4 3 2 3 4z"/>
    </g>
  </g>
</svg>